Coordinates
version=1
nRows=30
nColumns=21
inDegrees=yes

Units are S.I. units (second, meters, Newtons, ...)
Angles are in degrees.

endheader
time	Pelvis_pitch	Pelvis_roll	Pelvis_yaw	Pelvis_Tx	Pelvis_Ty	Pelvis_Tz	L_hip_flex-ext	L_hip_adb-add	L_hip_LAR	L_knee_flex-ext	L_crus_pron-sup	L_ankle_flex-ext	L_MTP_flex-ext	R_hip_flex-ext	R_hip_adb-add	R_hip_LAR	R_knee_flex-ext	R_crus_pron-sup	R_ankle_flex-ext	R_MTP_flex-ext
      0.44000000	    -10.22010454	      1.53796702	    -14.35726991	      0.21169984	      0.10718289	      0.08658186	      0.00000000	      0.00000000	      0.00000000	      0.00000000	      0.00000000	      0.00000000	      0.00000000	     -1.39658235	     -4.57620160	     67.55847046	   -106.05360433	     21.52358169	   -147.45897380	     21.65762412
      0.44010000	    -10.21666369	      1.53938112	    -14.36179729	      0.21179745	      0.10715403	      0.08660191	      0.00000000	      0.00000000	      0.00000000	      0.00000000	      0.00000000	      0.00000000	      0.00000000	     -1.39262888	     -4.57605312	     67.56221504	   -106.05255750	     21.52317278	   -147.45984707	     21.65753266
      0.44020000	    -10.21611934	      1.53961381	    -14.36247867	      0.21182572	      0.10714539	      0.08660797	      0.00000000	      0.00000000	      0.00000000	      0.00000000	      0.00000000	      0.00000000	      0.00000000	     -1.39203163	     -4.57604162	     67.56275400	   -106.05240806	     21.52310898	   -147.45995710	     21.65751836
      0.44030000	    -10.21467023	      1.54024816	    -14.36432546	      0.21189732	      0.10712431	      0.08662339	      0.00000000	      0.00000000	      0.00000000	      0.00000000	      0.00000000	      0.00000000	      0.00000000	     -1.39043544	     -4.57604194	     67.56408081	   -106.05207248	     21.52293808	   -147.46016462	     21.65747621
      0.44040000	    -10.21397533	      1.54055556	    -14.36516018	      0.21194741	      0.10710960	      0.08663431	      0.00000000	      0.00000000	      0.00000000	      0.00000000	      0.00000000	      0.00000000	      0.00000000	     -1.38970995	     -4.57605045	     67.56466167	   -106.05193134	     21.52285813	   -147.46023938	     21.65745640
      0.44050000	    -10.21204949	      1.54142900	    -14.36771415	      0.21202493	      0.10708662	      0.08665100	      0.00000000	      0.00000000	      0.00000000	      0.00000000	      0.00000000	      0.00000000	      0.00000000	     -1.38755057	     -4.57610851	     67.56623669	   -106.05159703	     21.52262640	   -147.46035294	     21.65739198
      0.44060000	    -10.20947931	      1.54261528	    -14.37125491	      0.21209772	      0.10706461	      0.08666649	      0.00000000	      0.00000000	      0.00000000	      0.00000000	      0.00000000	      0.00000000	      0.00000000	     -1.38459204	     -4.57621779	     67.56827402	   -106.05119900	     21.52231106	   -147.46042043	     21.65730017
      0.44070000	    -10.20857843	      1.54303401	    -14.37245944	      0.21213481	      0.10705355	      0.08667452	      0.00000000	      0.00000000	      0.00000000	      0.00000000	      0.00000000	      0.00000000	      0.00000000	     -1.38358314	     -4.57626212	     67.56895016	   -106.05107062	     21.52220190	   -147.46042756	     21.65726855
      0.44080000	    -10.06897954	      1.61315677	    -14.58440843	      0.21252444	      0.10687898	      0.08672762	      0.00000000	      0.00000000	      0.00000000	      0.00000000	      0.00000000	      0.00000000	      0.00000000	     -1.20775741	     -4.58561182	     67.68537734	   -106.01932050	     21.50379860	   -147.46232163	     21.65271335
      0.44090000	    -10.07113782	      1.61485482	    -14.58456861	      0.21261209	      0.10685778	      0.08675067	      0.00000000	      0.00000000	      0.00000000	      0.00000000	      0.00000000	      0.00000000	      0.00000000	     -1.20594920	     -4.58593392	     67.69089358	   -106.00930082	     21.50359573	   -147.46631877	     21.65355521
      0.44100000	    -10.07114807	      1.61496311	    -14.58457506	      0.21265055	      0.10684503	      0.08675880	      0.00000000	      0.00000000	      0.00000000	      0.00000000	      0.00000000	      0.00000000	      0.00000000	     -1.20585530	     -4.58594938	     67.69114192	   -106.00886260	     21.50357830	   -147.46648358	     21.65359121
      0.44110000	    -10.07107418	      1.61510796	    -14.58463611	      0.21270938	      0.10682813	      0.08677196	      0.00000000	      0.00000000	      0.00000000	      0.00000000	      0.00000000	      0.00000000	      0.00000000	     -1.20571082	     -4.58597370	     67.69140682	   -106.00843105	     21.50355402	   -147.46663381	     21.65362498
      0.44120000	    -10.07091862	      1.61529351	    -14.58482139	      0.21276830	      0.10681118	      0.08678514	      0.00000000	      0.00000000	      0.00000000	      0.00000000	      0.00000000	      0.00000000	      0.00000000	     -1.20546956	     -4.58600931	     67.69170541	   -106.00800676	     21.50351898	   -147.46676051	     21.65365432
      0.44130000	    -10.07068203	      1.61551945	    -14.58512960	      0.21282741	      0.10679413	      0.08679836	      0.00000000	      0.00000000	      0.00000000	      0.00000000	      0.00000000	      0.00000000	      0.00000000	     -1.20513248	     -4.58605611	     67.69203731	   -106.00758952	     21.50347327	   -147.46686383	     21.65367930
      0.44140000	    -10.06851761	      1.61740062	    -14.58923360	      0.21291990	      0.10676702	      0.08681933	      0.00000000	      0.00000000	      0.00000000	      0.00000000	      0.00000000	      0.00000000	      0.00000000	     -1.20138843	     -4.58650655	     67.69484087	   -106.00477912	     21.50303629	   -147.46729393	     21.65378962
      0.44150000	    -10.06814049	      1.61770093	    -14.58985603	      0.21295210	      0.10675728	      0.08682650	      0.00000000	      0.00000000	      0.00000000	      0.00000000	      0.00000000	      0.00000000	      0.00000000	     -1.20081683	     -4.58657681	     67.69525447	   -106.00437357	     21.50296689	   -147.46734363	     21.65380449
      0.44160000	    -10.06709510	      1.61848098	    -14.59157498	      0.21302234	      0.10673668	      0.08684223	      0.00000000	      0.00000000	      0.00000000	      0.00000000	      0.00000000	      0.00000000	      0.00000000	     -1.19927967	     -4.58676451	     67.69628275	   -106.00345533	     21.50278338	   -147.46740474	     21.65382888
      0.44170000	    -10.06656432	      1.61885480	    -14.59236385	      0.21307333	      0.10672175	      0.08685361	      0.00000000	      0.00000000	      0.00000000	      0.00000000	      0.00000000	      0.00000000	      0.00000000	     -1.19857087	     -4.58685325	     67.69674255	   -106.00305908	     21.50269660	   -147.46741734	     21.65383774
      0.44180000	    -10.06507423	      1.61987528	    -14.59476964	      0.21314918	      0.10669934	      0.08687058	      0.00000000	      0.00000000	      0.00000000	      0.00000000	      0.00000000	      0.00000000	      0.00000000	     -1.19648419	     -4.58710593	     67.69799475	   -106.00210299	     21.50245071	   -147.46737365	     21.65384450
      0.44190000	    -10.06309499	      1.62119695	    -14.59802102	      0.21322018	      0.10667799	      0.08688645	      0.00000000	      0.00000000	      0.00000000	      0.00000000	      0.00000000	      0.00000000	      0.00000000	     -1.19370520	     -4.58743895	     67.69958766	   -106.00097624	     21.50212690	   -147.46725231	     21.65384028
      0.44200000	    -10.06235121	      1.62167958	    -14.59917961	      0.21325965	      0.10666627	      0.08689525	      0.00000000	      0.00000000	      0.00000000	      0.00000000	      0.00000000	      0.00000000	      0.00000000	     -1.19271258	     -4.58755965	     67.70014484	   -106.00059379	     21.50200955	   -147.46719642	     21.65383708
      0.44210000	     -9.93841453	      1.70632071	    -14.82155727	      0.21365366	      0.10649123	      0.08698673	      0.00000000	      0.00000000	      0.00000000	      0.00000000	      0.00000000	      0.00000000	      0.00000000	     -1.00462786	     -4.60972253	     67.80429152	   -105.92036176	     21.48010919	   -147.45641834	     21.65421577
      0.44220000	     -9.93957564	      1.70646778	    -14.82105150	      0.21373219	      0.10647123	      0.08700708	      0.00000000	      0.00000000	      0.00000000	      0.00000000	      0.00000000	      0.00000000	      0.00000000	     -1.00440918	     -4.60975008	     67.80531046	   -105.91614623	     21.47995848	   -147.45721930	     21.65466114
      0.44230000	     -9.93967445	      1.70652935	    -14.82096603	      0.21378189	      0.10645655	      0.08701800	      0.00000000	      0.00000000	      0.00000000	      0.00000000	      0.00000000	      0.00000000	      0.00000000	     -1.00436280	     -4.60975969	     67.80547658	   -105.91547590	     21.47992809	   -147.45733744	     21.65473141
      0.44240000	     -9.93968963	      1.70663017	    -14.82097484	      0.21384060	      0.10643978	      0.08703119	      0.00000000	      0.00000000	      0.00000000	      0.00000000	      0.00000000	      0.00000000	      0.00000000	     -1.00423944	     -4.60977910	     67.80566923	   -105.91481260	     21.47988832	   -147.45743559	     21.65479810
      0.44250000	     -9.93962268	      1.70677212	    -14.82110815	      0.21389945	      0.10642294	      0.08704441	      0.00000000	      0.00000000	      0.00000000	      0.00000000	      0.00000000	      0.00000000	      0.00000000	     -1.00401906	     -4.60980968	     67.80589570	   -105.91415657	     21.47983757	   -147.45750990	     21.65486026
      0.44260000	     -9.93864974	      1.70804408	    -14.82394413	      0.21398434	      0.10639885	      0.08706406	      0.00000000	      0.00000000	      0.00000000	      0.00000000	      0.00000000	      0.00000000	      0.00000000	     -1.00114837	     -4.61013799	     67.80791723	   -105.90982077	     21.47937500	   -147.45772525	     21.65521550
      0.44270000	     -9.93843280	      1.70826431	    -14.82438307	      0.21402202	      0.10638764	      0.08707251	      0.00000000	      0.00000000	      0.00000000	      0.00000000	      0.00000000	      0.00000000	      0.00000000	     -1.00069791	     -4.61019157	     67.80822474	   -105.90917889	     21.47930020	   -147.45774609	     21.65526725
      0.44280000	    -10.24824423	      1.84199697	    -15.09337011	      0.21483661	      0.10656219	      0.08752494	      0.00000000	      0.00000000	      0.00000000	      0.00000000	      0.00000000	      0.00000000	      0.00000000	     -0.45518029	     -4.59656473	     68.45943838	   -103.80319951	     21.33517775	   -147.69911297	     21.87606059
      0.44290000	    -10.24822662	      1.84192187	    -15.09322656	      0.21486680	      0.10655278	      0.08754607	      0.00000000	      0.00000000	      0.00000000	      0.00000000	      0.00000000	      0.00000000	      0.00000000	     -0.45500436	     -4.59630922	     68.45991434	   -103.80339940	     21.33511747	   -147.69926745	     21.87607401
